<svg width="16" height="16" viewBox="0 0 16 16" fill="none" xmlns="http://www.w3.org/2000/svg">
<path d="M9.80003 4.19997C9.67787 4.32459 9.60945 4.49213 9.60945 4.66663C9.60945 4.84114 9.67787 5.00868 9.80003 5.1333L10.8667 6.19997C10.9913 6.32212 11.1589 6.39054 11.3334 6.39054C11.5079 6.39054 11.6754 6.32212 11.8 6.19997L14.3134 3.68663C14.6486 4.42743 14.7501 5.25279 14.6043 6.05273C14.4586 6.85267 14.0725 7.5892 13.4975 8.16415C12.9226 8.73911 12.1861 9.12519 11.3861 9.27094C10.5862 9.41669 9.76082 9.31519 9.02003 8.97997L4.41336 13.5866C4.14814 13.8519 3.78843 14.0008 3.41336 14.0008C3.03829 14.0008 2.67858 13.8519 2.41336 13.5866C2.14814 13.3214 1.99915 12.9617 1.99915 12.5866C1.99915 12.2116 2.14814 11.8519 2.41336 11.5866L7.02003 6.97997C6.6848 6.23917 6.5833 5.41381 6.72905 4.61387C6.87481 3.81393 7.26088 3.0774 7.83584 2.50245C8.4108 1.92749 9.14732 1.54141 9.94726 1.39566C10.7472 1.24991 11.5726 1.35141 12.3134 1.68663L9.80003 4.19997Z" stroke="#333333" stroke-linecap="round" stroke-linejoin="round"/>
</svg>
